<svg xmlns="http://www.w3.org/2000/svg" width="14" height="14" viewBox="0 0 14 14" fill="none">
    <path d="M10.6562 2.02148C10.3516 1.79297 9.94531 1.89453 9.76758 2.19922L9.36133 2.91016C9.20898 3.18945 9.28516 3.51953 9.51367 3.69727C10.6309 4.53516 11.2402 5.80469 11.2656 7.09961C11.2656 9.51172 9.31055 11.3906 7 11.3906C4.61328 11.3906 2.70898 9.48633 2.73438 7.125C2.73438 5.72852 3.39453 4.48438 4.46094 3.69727C4.68945 3.51953 4.76562 3.18945 4.61328 2.91016L4.20703 2.19922C4.0293 1.89453 3.62305 1.79297 3.31836 2.02148C1.71875 3.16406 0.677734 5.04297 0.703125 7.15039C0.703125 10.6035 3.54688 13.4473 7 13.4219C10.4785 13.4219 13.2969 10.6035 13.2969 7.125C13.2969 5.01758 12.2559 3.16406 10.6562 2.02148ZM8.01562 7.32812V1.23438C8.01562 0.904297 7.73633 0.625 7.40625 0.625H6.59375C6.23828 0.625 5.98438 0.904297 5.98438 1.23438V7.32812C5.98438 7.68359 6.23828 7.9375 6.59375 7.9375H7.40625C7.73633 7.9375 8.01562 7.68359 8.01562 7.32812Z" fill="#E5E5E5">
    </path>
</svg>